{
  "accessors": [
    {
      "bufferView": 2,
      "componentType": 5126,
      "count": 133,
      "max": [
        0.09516692161560059,
        3.342550754547119,
        0.012121608480811119
      ],
      "min": [
        -0.11964903771877289,
        -0.0007036924362182617,
        -0.012121608480811119
      ],
      "type": "VEC3"
    },
    {
      "bufferView": 2,
      "byteOffset": 1596,
      "componentType": 5126,
      "count": 133,
      "max": [
        0.9999962449073792,
        0.20076745748519897,
        0.999975323677063
      ],
      "min": [
        -0.22706864774227142,
        -0.0786091536283493,
        -0.999975323677063
      ],
      "type": "VEC3"
    },
    {
      "bufferView": 3,
      "componentType": 5126,
      "count": 133,
      "max": [
        0.717656135559082,
        0.7101887464523315,
        0.707259476184845,
        -1.0
      ],
      "min": [
        -0.05558523163199425,
        -0.7130707502365112,
        -0.22874511778354645,
        -1.0
      ],
      "type": "VEC4"
    },
    {
      "bufferView": 1,
      "componentType": 5126,
      "count": 133,
      "max": [
        0.998046875,
        0.9748724699020386
      ],
      "min": [
        0.001953125,
        0.001953125
      ],
      "type": "VEC2"
    },
    {
      "bufferView": 0,
      "componentType": 5125,
      "count": 519,
      "type": "SCALAR"
    },
    {
      "bufferView": 2,
      "byteOffset": 3192,
      "componentType": 5126,
      "count": 150,
      "max": [
        0.08412091434001923,
        0.056667510420084,
        0.03629430755972862
      ],
      "min": [
        -0.10468491166830063,
        -0.056667510420084,
        0.021305613219738007
      ],
      "type": "VEC3"
    },
    {
      "bufferView": 2,
      "byteOffset": 4992,
      "componentType": 5126,
      "count": 150,
      "max": [
        0.9999998807907104,
        0.9999997615814209,
        0.9999426603317261
      ],
      "min": [
        -1.0,
        -0.9999997615814209,
        -0.9999412298202515
      ],
      "type": "VEC3"
    },
    {
      "bufferView": 3,
      "byteOffset": 2128,
      "componentType": 5126,
      "count": 150,
      "max": [
        0.9999426603317261,
        0.9895904064178467,
        0.011481250636279583,
        1.0
      ],
      "min": [
        -0.9999412298202515,
        -0.9895904660224915,
        -1.0,
        1.0
      ],
      "type": "VEC4"
    },
    {
      "bufferView": 1,
      "byteOffset": 1064,
      "componentType": 5126,
      "count": 150,
      "max": [
        0.6278741359710693,
        0.9541919231414795
      ],
      "min": [
        0.6088480949401855,
        0.7158330082893372
      ],
      "type": "VEC2"
    },
    {
      "bufferView": 0,
      "byteOffset": 2076,
      "componentType": 5125,
      "count": 432,
      "type": "SCALAR"
    },
    {
      "bufferView": 2,
      "byteOffset": 6792,
      "componentType": 5126,
      "count": 1033,
      "max": [
        0.1921495646238327,
        0.19220872223377228,
        0.017134642228484154
      ],
      "min": [
        -0.19215001165866852,
        -0.19221344590187073,
        -0.017134642228484154
      ],
      "type": "VEC3"
    },
    {
      "bufferView": 2,
      "byteOffset": 19188,
      "componentType": 5126,
      "count": 1033,
      "max": [
        0.99994295835495,
        0.9999420046806335,
        0.9999998807907104
      ],
      "min": [
        -0.9999483227729797,
        -0.9999507665634155,
        -0.9999998807907104
      ],
      "type": "VEC3"
    },
    {
      "bufferView": 3,
      "byteOffset": 4528,
      "componentType": 5126,
      "count": 1033,
      "max": [
        0.9522626399993896,
        0.9300198554992676,
        0.9998261332511902,
        1.0
      ],
      "min": [
        -0.9603848457336426,
        -0.998035192489624,
        -0.9998260736465454,
        -1.0
      ],
      "type": "VEC4"
    },
    {
      "bufferView": 1,
      "byteOffset": 2264,
      "componentType": 5126,
      "count": 1033,
      "max": [
        1.9348764419555664,
        0.8712878823280334
      ],
      "min": [
        0.001953125,
        0.001953125
      ],
      "type": "VEC2"
    },
    {
      "bufferView": 0,
      "byteOffset": 3804,
      "componentType": 5125,
      "count": 3168,
      "type": "SCALAR"
    },
    {
      "bufferView": 2,
      "byteOffset": 31584,
      "componentType": 5126,
      "count": 500,
      "max": [
        0.13520300388336182,
        0.05137382447719574,
        0.025938110426068306
      ],
      "min": [
        -0.0958724096417427,
        -0.051373839378356934,
        -1.215649127960205
      ],
      "type": "VEC3"
    },
    {
      "bufferView": 2,
      "byteOffset": 37584,
      "componentType": 5126,
      "count": 500,
      "max": [
        0.9999992847442627,
        1.0,
        0.999937891960144
      ],
      "min": [
        -0.9999995827674866,
        -1.0,
        -0.9990706443786621
      ],
      "type": "VEC3"
    },
    {
      "bufferView": 3,
      "byteOffset": 21056,
      "componentType": 5126,
      "count": 500,
      "max": [
        0.999885618686676,
        1.0,
        0.0548202283680439,
        1.0
      ],
      "min": [
        -0.9999378323554993,
        -1.0,
        -0.05481042340397835,
        1.0
      ],
      "type": "VEC4"
    },
    {
      "bufferView": 1,
      "byteOffset": 10528,
      "componentType": 5126,
      "count": 500,
      "max": [
        0.705856442451477,
        0.9293639063835144
      ],
      "min": [
        0.001953125,
        0.001953125
      ],
      "type": "VEC2"
    },
    {
      "bufferView": 0,
      "byteOffset": 16476,
      "componentType": 5125,
      "count": 2448,
      "type": "SCALAR"
    },
    {
      "bufferView": 2,
      "byteOffset": 43584,
      "componentType": 5126,
      "count": 1333,
      "max": [
        0.1361900418996811,
        0.05769937112927437,
        0.06788621842861176
      ],
      "min": [
        -0.10248918831348419,
        -0.057699378579854965,
        -1.041614294052124
      ],
      "type": "VEC3"
    },
    {
      "bufferView": 2,
      "byteOffset": 59580,
      "componentType": 5126,
      "count": 1333,
      "max": [
        0.9999910593032837,
        1.0,
        0.9999355673789978
      ],
      "min": [
        -0.9999927282333374,
        -1.0,
        -0.9994603991508484
      ],
      "type": "VEC3"
    },
    {
      "bufferView": 3,
      "byteOffset": 29056,
      "componentType": 5126,
      "count": 1333,
      "max": [
        0.999935507774353,
        1.0,
        0.09045014530420303,
        1.0
      ],
      "min": [
        -0.9998126029968262,
        -1.0,
        -0.08955564349889755,
        1.0
      ],
      "type": "VEC4"
    },
    {
      "bufferView": 1,
      "byteOffset": 14528,
      "componentType": 5126,
      "count": 1333,
      "max": [
        0.9961503744125366,
        0.9944862723350525
      ],
      "min": [
        0.057164423167705536,
        0.001953125
      ],
      "type": "VEC2"
    },
    {
      "bufferView": 0,
      "byteOffset": 26268,
      "componentType": 5125,
      "count": 4176,
      "type": "SCALAR"
    },
    {
      "bufferView": 2,
      "byteOffset": 75576,
      "componentType": 5126,
      "count": 150,
      "max": [
        0.14621904492378235,
        0.060006577521562576,
        0.14256329834461212
      ],
      "min": [
        -0.05003971606492996,
        -0.06000659242272377,
        0.06928642839193344
      ],
      "type": "VEC3"
    },
    {
      "bufferView": 2,
      "byteOffset": 77376,
      "componentType": 5126,
      "count": 150,
      "max": [
        0.9927254319190979,
        0.9999947547912598,
        0.9992682933807373
      ],
      "min": [
        -0.992664098739624,
        -0.9999948143959045,
        -0.9991702437400818
      ],
      "type": "VEC3"
    },
    {
      "bufferView": 3,
      "byteOffset": 50384,
      "componentType": 5126,
      "count": 150,
      "max": [
        0.9991702437400818,
        0.9985492825508118,
        0.9927254319190979,
        1.0
      ],
      "min": [
        -0.9992520809173584,
        -0.9985492825508118,
        -0.040361806750297546,
        1.0
      ],
      "type": "VEC4"
    },
    {
      "bufferView": 1,
      "byteOffset": 25192,
      "componentType": 5126,
      "count": 150,
      "max": [
        0.6754655838012695,
        0.9647763967514038
      ],
      "min": [
        0.4372920095920563,
        0.6387606263160706
      ],
      "type": "VEC2"
    },
    {
      "bufferView": 0,
      "byteOffset": 42972,
      "componentType": 5125,
      "count": 432,
      "type": "SCALAR"
    },
    {
      "bufferView": 2,
      "byteOffset": 79176,
      "componentType": 5126,
      "count": 150,
      "max": [
        0.084429532289505,
        0.06000658497214317,
        0.07038648426532745
      ],
      "min": [
        -0.10490348190069199,
        -0.06000658497214317,
        -0.0006558838067576289
      ],
      "type": "VEC3"
    },
    {
      "bufferView": 2,
      "byteOffset": 80976,
      "componentType": 5126,
      "count": 150,
      "max": [
        0.9999992847442627,
        0.9999997615814209,
        0.9999486207962036
      ],
      "min": [
        -0.9999996423721313,
        -0.9999998211860657,
        -0.9999334216117859
      ],
      "type": "VEC3"
    },
    {
      "bufferView": 3,
      "byteOffset": 52784,
      "componentType": 5126,
      "count": 150,
      "max": [
        0.9908290505409241,
        0.9985398650169373,
        0.9999996423721313,
        1.0
      ],
      "min": [
        -0.9999440908432007,
        -0.9985398650169373,
        -0.011540215462446213,
        1.0
      ],
      "type": "VEC4"
    },
    {
      "bufferView": 1,
      "byteOffset": 26392,
      "componentType": 5126,
      "count": 150,
      "max": [
        0.6567201018333435,
        0.9652161002159119
      ],
      "min": [
        0.4875234067440033,
        0.5885283350944519
      ],
      "type": "VEC2"
    },
    {
      "bufferView": 0,
      "byteOffset": 44700,
      "componentType": 5125,
      "count": 432,
      "type": "SCALAR"
    },
    {
      "bufferView": 2,
      "byteOffset": 82776,
      "componentType": 5126,
      "count": 272,
      "max": [
        0.1497054398059845,
        0.056667495518922806,
        -1.2051150798797607
      ],
      "min": [
        -0.0420016311109066,
        -0.0566675178706646,
        -1.3261891603469849
      ],
      "type": "VEC3"
    },
    {
      "bufferView": 2,
      "byteOffset": 86040,
      "componentType": 5126,
      "count": 272,
      "max": [
        0.9982666969299316,
        0.9999942183494568,
        0.9991260170936584
      ],
      "min": [
        -0.9922032356262207,
        -0.999994158744812,
        -0.9981144666671753
      ],
      "type": "VEC3"
    },
    {
      "bufferView": 3,
      "byteOffset": 55184,
      "componentType": 5126,
      "count": 272,
      "max": [
        0.997749388217926,
        0.9999936819076538,
        0.9982666969299316,
        1.0
      ],
      "min": [
        -0.9991255402565002,
        -0.9896559119224548,
        -0.887069582939148,
        1.0
      ],
      "type": "VEC4"
    },
    {
      "bufferView": 1,
      "byteOffset": 27592,
      "componentType": 5126,
      "count": 272,
      "max": [
        0.6407601237297058,
        0.9430132508277893
      ],
      "min": [
        0.5377548336982727,
        0.001510806381702423
      ],
      "type": "VEC2"
    },
    {
      "bufferView": 0,
      "byteOffset": 46428,
      "componentType": 5125,
      "count": 1224,
      "type": "SCALAR"
    },
    {
      "bufferView": 2,
      "byteOffset": 89304,
      "componentType": 5126,
      "count": 112,
      "max": [
        0.0873492956161499,
        0.020321516320109367,
        0.08371192961931229
      ],
      "min": [
        -0.08766955137252808,
        -0.020321516320109367,
        -0.08315756916999817
      ],
      "type": "VEC3"
    },
    {
      "bufferView": 2,
      "byteOffset": 90648,
      "componentType": 5126,
      "count": 112,
      "max": [
        0.7565838098526001,
        0.9999564290046692,
        0.9986187219619751
      ],
      "min": [
        -0.9986187219619751,
        -0.9999564290046692,
        -0.9986187219619751
      ],
      "type": "VEC3"
    },
    {
      "bufferView": 3,
      "byteOffset": 59536,
      "componentType": 5126,
      "count": 112,
      "max": [
        0.6517825722694397,
        0.9999953508377075,
        0.9986187219619751,
        1.0
      ],
      "min": [
        -0.6517825722694397,
        -0.9999954104423523,
        -0.37651485204696655,
        1.0
      ],
      "type": "VEC4"
    },
    {
      "bufferView": 1,
      "byteOffset": 29768,
      "componentType": 5126,
      "count": 112,
      "max": [
        0.9907103180885315,
        0.703435480594635
      ],
      "min": [
        0.6005440950393677,
        0.0016330182552337646
      ],
      "type": "VEC2"
    },
    {
      "bufferView": 0,
      "byteOffset": 51324,
      "componentType": 5125,
      "count": 348,
      "type": "SCALAR"
    }
  ],
  "asset": {
    "extras": {
      "author": "Andriy Shekh (https://sketchfab.com/sheh5262)",
      "license": "CC-BY-4.0 (http://creativecommons.org/licenses/by/4.0/)",
      "source": "https://sketchfab.com/3d-models/katana-4e59ad43ecdd45359fb786935ff624b8",
      "title": "Katana"
    },
    "generator": "Sketchfab-12.68.0",
    "version": "2.0"
  },
  "bufferViews": [
    {
      "buffer": 0,
      "byteLength": 52716,
      "name": "floatBufferViews",
      "target": 34963
    },
    {
      "buffer": 0,
      "byteLength": 30664,
      "byteOffset": 52716,
      "byteStride": 8,
      "name": "floatBufferViews",
      "target": 34962
    },
    {
      "buffer": 0,
      "byteLength": 91992,
      "byteOffset": 83380,
      "byteStride": 12,
      "name": "floatBufferViews",
      "target": 34962
    },
    {
      "buffer": 0,
      "byteLength": 61328,
      "byteOffset": 175372,
      "byteStride": 16,
      "name": "floatBufferViews",
      "target": 34962
    }
  ],
  "buffers": [
    {
      "byteLength": 236700,
      "uri": "scene.bin"
    }
  ],
  "images": [
    {
      "uri": "textures/Katana_baseColor.jpeg"
    },
    {
      "uri": "textures/Katana_metallicRoughness.png"
    },
    {
      "uri": "textures/Katana_normal.png"
    }
  ],
  "materials": [
    {
      "doubleSided": true,
      "name": "Katana",
      "normalTexture": {
        "index": 2
      },
      "occlusionTexture": {
        "index": 1
      },
      "pbrMetallicRoughness": {
        "baseColorTexture": {
          "index": 0
        },
        "metallicRoughnessTexture": {
          "index": 1
        }
      }
    }
  ],
  "meshes": [
    {
      "name": "Blade_low_Katana_0",
      "primitives": [
        {
          "attributes": {
            "NORMAL": 1,
            "POSITION": 0,
            "TANGENT": 2,
            "TEXCOORD_0": 3
          },
          "indices": 4,
          "material": 0,
          "mode": 4
        }
      ]
    },
    {
      "name": "Connectorr_low_Katana_0",
      "primitives": [
        {
          "attributes": {
            "NORMAL": 6,
            "POSITION": 5,
            "TANGENT": 7,
            "TEXCOORD_0": 8
          },
          "indices": 9,
          "material": 0,
          "mode": 4
        }
      ]
    },
    {
      "name": "CrossGuard_low_Katana_0",
      "primitives": [
        {
          "attributes": {
            "NORMAL": 11,
            "POSITION": 10,
            "TANGENT": 12,
            "TEXCOORD_0": 13
          },
          "indices": 14,
          "material": 0,
          "mode": 4
        }
      ]
    },
    {
      "name": "Grip_low_Katana_0",
      "primitives": [
        {
          "attributes": {
            "NORMAL": 16,
            "POSITION": 15,
            "TANGENT": 17,
            "TEXCOORD_0": 18
          },
          "indices": 19,
          "material": 0,
          "mode": 4
        }
      ]
    },
    {
      "name": "ItoWrap_low_Katana_0",
      "primitives": [
        {
          "attributes": {
            "NORMAL": 21,
            "POSITION": 20,
            "TANGENT": 22,
            "TEXCOORD_0": 23
          },
          "indices": 24,
          "material": 0,
          "mode": 4
        }
      ]
    },
    {
      "name": "ItoWrapCup_low_Katana_0",
      "primitives": [
        {
          "attributes": {
            "NORMAL": 26,
            "POSITION": 25,
            "TANGENT": 27,
            "TEXCOORD_0": 28
          },
          "indices": 29,
          "material": 0,
          "mode": 4
        }
      ]
    },
    {
      "name": "ItoWrapEnd_low_Katana_0",
      "primitives": [
        {
          "attributes": {
            "NORMAL": 31,
            "POSITION": 30,
            "TANGENT": 32,
            "TEXCOORD_0": 33
          },
          "indices": 34,
          "material": 0,
          "mode": 4
        }
      ]
    },
    {
      "name": "Pommel_low_Katana_0",
      "primitives": [
        {
          "attributes": {
            "NORMAL": 36,
            "POSITION": 35,
            "TANGENT": 37,
            "TEXCOORD_0": 38
          },
          "indices": 39,
          "material": 0,
          "mode": 4
        }
      ]
    },
    {
      "name": "RainGuard_low_Katana_0",
      "primitives": [
        {
          "attributes": {
            "NORMAL": 41,
            "POSITION": 40,
            "TANGENT": 42,
            "TEXCOORD_0": 43
          },
          "indices": 44,
          "material": 0,
          "mode": 4
        }
      ]
    }
  ],
  "nodes": [
    {
      "children": [
        1
      ],
      "matrix": [
        1.0,
        0.0,
        0.0,
        0.0,
        0.0,
        2.220446049250313e-16,
        -1.0,
        0.0,
        0.0,
        1.0,
        2.220446049250313e-16,
        0.0,
        0.0,
        0.0,
        0.0,
        1.0
      ],
      "name": "Sketchfab_model"
    },
    {
      "children": [
        2
      ],
      "matrix": [
        1.0,
        0.0,
        0.0,
        0.0,
        0.0,
        0.0,
        1.0,
        0.0,
        0.0,
        -1.0,
        0.0,
        0.0,
        0.0,
        0.0,
        0.0,
        1.0
      ],
      "name": "ad9eb11131dd4293ac08ec5766e91824.fbx"
    },
    {
      "children": [
        3,
        5,
        7,
        9,
        11,
        13,
        15,
        17,
        19
      ],
      "name": "RootNode"
    },
    {
      "children": [
        4
      ],
      "matrix": [
        100.0,
        0.0,
        0.0,
        0.0,
        0.0,
        99.99999999999866,
        1.6292067073209114e-05,
        0.0,
        0.0,
        -1.6292067073209114e-05,
        99.99999999999866,
        0.0,
        1.8158389329910278,
        158.32972717285156,
        2.127299376297742e-05,
        1.0
      ],
      "name": "Blade_low"
    },
    {
      "mesh": 0,
      "name": "Blade_low_Katana_0"
    },
    {
      "children": [
        6
      ],
      "matrix": [
        99.85551197689337,
        5.373565106487166,
        5.266452649634992e-07,
        0.0,
        7.607704230472301e-07,
        -4.336523917736201e-06,
        -99.9999999999999,
        0.0,
        -5.373565106487138,
        99.85551197689328,
        -4.371138650613578e-06,
        0.0,
        4.014491081237793,
        138.42361450195313,
        1.766314380802214e-05,
        1.0
      ],
      "name": "Connectorr_low"
    },
    {
      "mesh": 1,
      "name": "Connectorr_low_Katana_0"
    },
    {
      "children": [
        8
      ],
      "matrix": [
        97.82716776847182,
        6.384123332586405,
        19.725357830786216,
        0.0,
        19.68348897905503,
        1.2845244894498387,
        -98.03525786331357,
        0.0,
        -6.5120683265497314,
        99.78774720369879,
        -4.285257387249411e-06,
        0.0,
        2.440983533859253,
        143.61309814453125,
        1.9295686797704548e-05,
        1.0
      ],
      "name": "CrossGuard_low"
    },
    {
      "mesh": 2,
      "name": "CrossGuard_low_Katana_0"
    },
    {
      "children": [
        10
      ],
      "matrix": [
        99.85551197689337,
        5.373565106487166,
        5.266452649634992e-07,
        0.0,
        7.607704230472301e-07,
        -4.336523917736201e-06,
        -99.9999999999999,
        0.0,
        -5.373565106487138,
        99.85551197689328,
        -4.371138650613578e-06,
        0.0,
        3.938335657119751,
        139.8388214111328,
        1.772337236616295e-05,
        1.0
      ],
      "name": "Grip_low"
    },
    {
      "mesh": 3,
      "name": "Grip_low_Katana_0"
    },
    {
      "children": [
        12
      ],
      "matrix": [
        99.85551197689337,
        5.373565106487166,
        5.266452649634992e-07,
        0.0,
        7.607704230472301e-07,
        -4.336523917736201e-06,
        -99.9999999999999,
        0.0,
        -5.373565106487138,
        99.85551197689328,
        -4.371138650613578e-06,
        0.0,
        4.618747711181641,
        127.19490814208984,
        0.01950136572122574,
        1.0
      ],
      "name": "ItoWrap_low"
    },
    {
      "mesh": 4,
      "name": "ItoWrap_low_Katana_0"
    },
    {
      "children": [
        14
      ],
      "matrix": [
        99.85551197689337,
        5.373565106487166,
        5.266452649634992e-07,
        0.0,
        7.607704230472301e-07,
        -4.336523917736201e-06,
        -99.9999999999999,
        0.0,
        -5.373565106487138,
        99.85551197689328,
        -4.371138650613578e-06,
        0.0,
        10.932077407836914,
        9.87595272064209,
        0.01950138621032238,
        1.0
      ],
      "name": "ItoWrapCup_low"
    },
    {
      "mesh": 5,
      "name": "ItoWrapCup_low_Katana_0"
    },
    {
      "children": [
        16
      ],
      "matrix": [
        99.85551197689337,
        5.373565106487166,
        5.266452649634992e-07,
        0.0,
        7.607704230472301e-07,
        -4.336523917736201e-06,
        -99.9999999999999,
        0.0,
        -5.373565106487138,
        99.85551197689328,
        -4.371138650613578e-06,
        0.0,
        4.265972137451172,
        133.7504425048828,
        0.01950136199593544,
        1.0
      ],
      "name": "ItoWrapEnd_low"
    },
    {
      "mesh": 6,
      "name": "ItoWrapEnd_low_Katana_0"
    },
    {
      "children": [
        18
      ],
      "matrix": [
        99.85551197689337,
        5.373565106487166,
        5.266452649634992e-07,
        0.0,
        7.607704230472301e-07,
        -4.336523917736201e-06,
        -99.9999999999999,
        0.0,
        -5.373565106487138,
        99.85551197689328,
        -4.371138650613578e-06,
        0.0,
        4.032402992248535,
        138.09075927734375,
        1.7723708879202604e-05,
        1.0
      ],
      "name": "Pommel_low"
    },
    {
      "mesh": 7,
      "name": "Pommel_low_Katana_0"
    },
    {
      "children": [
        20
      ],
      "matrix": [
        100.0,
        0.0,
        0.0,
        0.0,
        0.0,
        -1.629206793918314e-05,
        -99.99999999999868,
        0.0,
        0.0,
        99.99999999999868,
        -1.629206793918314e-05,
        0.0,
        1.9126378297805786,
        151.7449951171875,
        2.0388280972838402e-05,
        1.0
      ],
      "name": "RainGuard_low"
    },
    {
      "mesh": 8,
      "name": "RainGuard_low_Katana_0"
    }
  ],
  "samplers": [
    {
      "magFilter": 9729,
      "minFilter": 9987,
      "wrapS": 10497,
      "wrapT": 10497
    }
  ],
  "scene": 0,
  "scenes": [
    {
      "name": "Sketchfab_Scene",
      "nodes": [
        0
      ]
    }
  ],
  "textures": [
    {
      "sampler": 0,
      "source": 0
    },
    {
      "sampler": 0,
      "source": 1
    },
    {
      "sampler": 0,
      "source": 2
    }
  ]
}
